Trial010_GRF
version=1
nRows=12
nColumns=19
inDegrees=yes
endheader
time	ground_force_vx	ground_force_vy	ground_force_vz	ground_force_px	ground_force_py	ground_force_pz	1_ground_force_vx	1_ground_force_vy	1_ground_force_vz	1_ground_force_px	1_ground_force_py	1_ground_force_pz	ground_torque_x	ground_torque_y	ground_torque_z	1_ground_torque_x	1_ground_torque_y	1_ground_torque_z
      2.64800000	    -30.64193788	    130.23045924	      5.93802613	      1.09196643	      0.00000000	      0.27660138	   -364.06958126	    958.55145972	     22.76582416	      2.29138746	      0.00000000	      0.16907859	    -36.63611949	    -12.34935603	    142.32631264	   -181.01186870	    -63.85141773	   2197.59722763
      2.65200000	    -30.18321601	    137.06634904	      7.12505021	      1.08877042	      0.00000000	      0.27498143	   -361.58819452	    955.44658017	     23.18774362	      2.28657937	      0.00000000	      0.16809728	    -38.23823859	    -13.57091688	    149.36303783	   -179.34373001	    -64.29596182	   2185.90591975
      2.65600000	    -29.73584560	    144.09684755	      8.33233581	      1.08582947	      0.00000000	      0.27338300	   -358.32629657	    951.11529022	     23.53037855	      2.28176698	      0.00000000	      0.16714925	    -39.88059073	    -14.81700201	    156.60105556	   -177.48417717	    -64.46390500	   2171.43870488
      2.66000000	    -29.29804418	    151.29242799	      9.54319928	      1.08312487	      0.00000000	      0.27182718	   -354.24142321	    945.45520828	     23.78711085	      2.27696687	      0.00000000	      0.16623836	    -41.55758632	    -16.06868178	    164.00936823	   -175.42175360	    -64.34027903	   2153.99572240
      2.66400000	    -28.86681364	    158.62171266	     10.74007620	      1.08063670	      0.00000000	      0.27033200	   -349.29710139	    938.37035755	     23.95245996	      2.27219423	      0.00000000	      0.16536815	    -43.26340437	    -17.30583845	    171.55489764	   -173.14574510	    -63.91390740	   2133.39191529
      2.66800000	    -28.43781648	    166.05195415	     11.90481281	      1.07834455	      0.00000000	      0.26891255	   -343.46376366	    929.77334177	     24.02220561	      2.26746265	      0.00000000	      0.16454190	    -44.99208542	    -18.50746329	    179.20297905	   -170.64646594	    -63.17771250	   2109.46146893
      2.67200000	    -28.00526373	    173.54958589	     13.01898161	      1.07622796	      0.00000000	      0.26758121	   -336.71958590	    919.58753317	     23.99347720	      2.26278404	      0.00000000	      0.16376266	    -46.73763663	    -19.65197994	    186.91792919	   -167.91555791	    -62.12891909	   2082.06226384
      2.67600000	    -27.56181835	    181.08083706	     14.06421527	      1.07426690	      0.00000000	      0.26634790	   -329.05123315	    907.74922568	     23.86480789	      2.25816851	      0.00000000	      0.16303328	    -48.49414816	    -20.71758796	    194.66368340	   -164.94629627	    -60.76914999	   2051.08024635
      2.68000000	    -27.09851801	    188.61240412	     15.02255175	      1.07244188	      0.00000000	      0.26522035	   -320.45449979	    894.20970356	     23.63615350	      2.25362427	      0.00000000	      0.16235654	    -50.25591982	    -21.68262017	    202.40449390	   -161.73389525	    -59.10441462	   2016.43361608
      2.68400000	    -26.60472162	    196.11216846	     15.87678372	      1.07073417	      0.00000000	      0.26420441	   -310.93483160	    878.93717440	     23.30887751	      2.24915763	      0.00000000	      0.16173517	    -52.01759599	    -22.52590695	    210.10567900	   -158.27580526	    -57.14499533	   1978.07672509
      2.68800000	    -26.06808389	    203.54994721	     16.61080423	      1.06912585	     -0.00000000	      0.26330421	   -300.50771774	    861.91851445	     22.88570516	      2.24477294	      0.00000000	      0.16117200	    -53.77430654	    -23.22714035	    217.73440992	   -154.57199308	    -54.90524020	   1936.00358214
      2.69200000	    -25.47456277	    210.89826192	     17.20994093	      1.06759982	      0.00000000	      0.26252250	   -289.19894087	    843.16077483	     22.37065043	      2.24047258	      0.00000000	      0.16067001	    -55.52181076	    -23.76723081	    225.26051967	   -150.62519581	    -52.40327356	   1890.25085573
